{"cells":[{"cell_type":"markdown","metadata":{"id":"AIGuIpRFAo18"},"source":["# Setup\n","\n","Clone repo, install dependencies and check PyTorch and GPU."]},{"cell_type":"code","execution_count":null,"metadata":{"colab":{"base_uri":"https://localhost:8080/"},"executionInfo":{"elapsed":26044,"status":"ok","timestamp":1681690243919,"user":{"displayName":"Justin Park","userId":"12032321859036831361"},"user_tz":-540},"id":"dH0tuAfDiVIq","outputId":"079f5f69-47b1-4ea9-900e-2e85aca4a753"},"outputs":[{"name":"stdout","output_type":"stream","text":["Mounted at /content/drive\n"]}],"source":["from google.colab import drive\n","drive.mount('/content/drive')"]},{"cell_type":"code","execution_count":null,"metadata":{"colab":{"base_uri":"https://localhost:8080/"},"executionInfo":{"elapsed":1336,"status":"ok","timestamp":1681690249827,"user":{"displayName":"Justin Park","userId":"12032321859036831361"},"user_tz":-540},"id":"gmQmpO2Yib3J","outputId":"08b74b1a-6cac-4e58-f3be-ca879af030c2"},"outputs":[{"name":"stdout","output_type":"stream","text":["/content/drive/Othercomputers/내 노트북/Forked_Models/Yolov7_StrongSORT_OSNet\n"]}],"source":["%cd \"drive/Othercomputers/내 노트북/Forked_Models/Yolov7_StrongSORT_OSNet\""]},{"cell_type":"code","execution_count":null,"metadata":{"colab":{"base_uri":"https://localhost:8080/"},"executionInfo":{"elapsed":14294,"status":"ok","timestamp":1681690318461,"user":{"displayName":"Justin Park","userId":"12032321859036831361"},"user_tz":-540},"id":"taGCP-gCgqX8","outputId":"605db488-a4fd-4f48-f50d-6f9a8569667b"},"outputs":[{"name":"stdout","output_type":"stream","text":["Setup complete. Using torch 2.0.0+cu118 (Tesla T4)\n"]}],"source":["%pip install -qr requirements.txt  # install dependencies\n","\n","import torch\n","from IPython.display import Image, clear_output  # to display images\n","\n","clear_output()\n","print(f\"Setup complete. Using torch {torch.__version__} ({torch.cuda.get_device_properties(0).name if torch.cuda.is_available() else 'CPU'})\")"]},{"cell_type":"markdown","metadata":{"id":"1JQRVPMtA9Cr"},"source":["# Download data\n","\n","Get test video from repo and extract the first 2 seconds of it "]},{"cell_type":"code","execution_count":null,"metadata":{"colab":{"base_uri":"https://localhost:8080/"},"executionInfo":{"elapsed":2611,"status":"ok","timestamp":1681690328280,"user":{"displayName":"Justin Park","userId":"12032321859036831361"},"user_tz":-540},"id":"4Acf_nRZ7yS6","outputId":"600eab25-4a73-4c49-bdee-438d518a2a08"},"outputs":[{"name":"stdout","output_type":"stream","text":["/content/drive/Othercomputers/내: Operation not supported\n","File ‘test.avi’ already there; not retrieving.\n","\n","ffmpeg version 4.2.7-0ubuntu0.1 Copyright (c) 2000-2022 the FFmpeg developers\n","  built with gcc 9 (Ubuntu 9.4.0-1ubuntu1~20.04.1)\n","  configuration: --prefix=/usr --extra-version=0ubuntu0.1 --toolchain=hardened --libdir=/usr/lib/x86_64-linux-gnu --incdir=/usr/include/x86_64-linux-gnu --arch=amd64 --enable-gpl --disable-stripping --enable-avresample --disable-filter=resample --enable-avisynth --enable-gnutls --enable-ladspa --enable-libaom --enable-libass --enable-libbluray --enable-libbs2b --enable-libcaca --enable-libcdio --enable-libcodec2 --enable-libflite --enable-libfontconfig --enable-libfreetype --enable-libfribidi --enable-libgme --enable-libgsm --enable-libjack --enable-libmp3lame --enable-libmysofa --enable-libopenjpeg --enable-libopenmpt --enable-libopus --enable-libpulse --enable-librsvg --enable-librubberband --enable-libshine --enable-libsnappy --enable-libsoxr --enable-libspeex --enable-libssh --enable-libtheora --enable-libtwolame --enable-libvidstab --enable-libvorbis --enable-libvpx --enable-libwavpack --enable-libwebp --enable-libx265 --enable-libxml2 --enable-libxvid --enable-libzmq --enable-libzvbi --enable-lv2 --enable-omx --enable-openal --enable-opencl --enable-opengl --enable-sdl2 --enable-libdc1394 --enable-libdrm --enable-libiec61883 --enable-nvenc --enable-chromaprint --enable-frei0r --enable-libx264 --enable-shared\n","  libavutil      56. 31.100 / 56. 31.100\n","  libavcodec     58. 54.100 / 58. 54.100\n","  libavformat    58. 29.100 / 58. 29.100\n","  libavdevice    58.  8.100 / 58.  8.100\n","  libavfilter     7. 57.100 /  7. 57.100\n","  libavresample   4.  0.  0 /  4.  0.  0\n","  libswscale      5.  5.100 /  5.  5.100\n","  libswresample   3.  5.100 /  3.  5.100\n","  libpostproc    55.  5.100 / 55.  5.100\n","Input #0, matroska,webm, from 'test.avi':\n","  Metadata:\n","    COMPATIBLE_BRANDS: isomiso2mp41\n","    MAJOR_BRAND     : isom\n","    MINOR_VERSION   : 512\n","    ENCODER         : Lavf57.83.100\n","  Duration: 00:00:35.00, start: 0.000000, bitrate: 1164 kb/s\n","    Stream #0:0: Video: vp9 (Profile 0), yuv420p(tv, progressive), 960x540, SAR 1:1 DAR 16:9, 30 fps, 30 tbr, 1k tbn, 1k tbc (default)\n","    Metadata:\n","      HANDLER_NAME    : VideoHandler\n","      ENCODER         : Lavc57.107.100 libvpx-vp9\n","      DURATION        : 00:00:35.000000000\n","File 'out.avi' already exists. Overwrite ? [y/N] Output #0, avi, to 'out.avi':\n","  Metadata:\n","    COMPATIBLE_BRANDS: isomiso2mp41\n","    MAJOR_BRAND     : isom\n","    MINOR_VERSION   : 512\n","    ISFT            : Lavf58.29.100\n","    Stream #0:0: Video: vp9 (Profile 0) (VP90 / 0x30395056), yuv420p(tv, progressive), 960x540 [SAR 1:1 DAR 16:9], q=2-31, 30 fps, 30 tbr, 60 tbn, 60 tbc (default)\n","    Metadata:\n","      HANDLER_NAME    : VideoHandler\n","      ENCODER         : Lavc57.107.100 libvpx-vp9\n","      DURATION        : 00:00:35.000000000\n","Stream mapping:\n","  Stream #0:0 -> #0:0 (copy)\n","Press [q] to stop, [?] for help\n","frame=   60 fps=0.0 q=-1.0 Lsize=     285kB time=00:00:01.98 bitrate=1177.7kbits/s speed= 334x    \n","video:277kB audio:0kB subtitle:0kB other streams:0kB global headers:0kB muxing overhead: 3.061152%\n"]}],"source":["# get yolov5m model trained on the crowd-human dataset\n","!wget -nc https://github.com/WongKinYiu/yolov7/releases/download/v0.1/yolov7.pt -O \"/content/drive/Othercomputers/내 노트북/Forked_Models/Yolov7_StrongSORT_OSNet/yolov7.pt\"\n","\n","# get the test video from the repo\n","!wget -nc https://github.com/mikel-brostrom/Yolov5_StrongSORT_OSNet/releases/download/v.2.0/test.avi\n","# extract 3 seconds worth of video frames of it\n","!yes | ffmpeg -ss 00:00:00 -i test.avi -t 00:00:02 -c copy out.avi"]},{"cell_type":"markdown","metadata":{"id":"oqIP5shr9HQd"},"source":["## Run inference on video\n","\n","The ``cv2.imshow()`` and ``cv.imshow()`` functions from the [opencv-python](https://github.com/skvark/opencv-python) package are incompatible with Jupyter notebook; see https://github.com/jupyter/notebook/issues/3935. \n","\n","Hence we chose to save it to file in this notebook. Locally you can use the ``--show-vid`` flag in order visualize the tracking in real-time"]},{"cell_type":"code","execution_count":null,"metadata":{"colab":{"base_uri":"https://localhost:8080/"},"executionInfo":{"elapsed":72704,"status":"ok","timestamp":1681690655277,"user":{"displayName":"Justin Park","userId":"12032321859036831361"},"user_tz":-540},"id":"4yEraJfKhBku","outputId":"b03c7ea7-cce7-4134-9bd3-76e61367f317"},"outputs":[{"name":"stdout","output_type":"stream","text":["/content/drive/Othercomputers/내 노트북/Forked_Models/Yolov7_StrongSORT_OSNet/strong_sort/deep/reid/torchreid/metrics/rank.py:11: UserWarning: Cython evaluation (very fast so highly recommended) is unavailable, now use python evaluation.\n","  warnings.warn(\n","2023-04-17 00:16:26.275902: I tensorflow/core/platform/cpu_feature_guard.cc:182] This TensorFlow binary is optimized to use available CPU instructions in performance-critical operations.\n","To enable the following instructions: AVX2 AVX512F FMA, in other operations, rebuild TensorFlow with the appropriate compiler flags.\n","2023-04-17 00:16:27.443426: W tensorflow/compiler/tf2tensorrt/utils/py_utils.cc:38] TF-TRT Warning: Could not find TensorRT\n","Downloading https://github.com/WongKinYiu/yolov7/releases/download/v0.1/yolov7.pt to /content/drive/Othercomputers/내 노트북/Forked_Models/Yolov7_StrongSORT_OSNet/yolov7.pt...\n","100% 72.1M/72.1M [00:01<00:00, 54.6MB/s]\n","\n","Fusing layers... \n","RepConv.fuse_repvgg_block\n","RepConv.fuse_repvgg_block\n","RepConv.fuse_repvgg_block\n","Downloading...\n","From: https://drive.google.com/uc?id=1Kkx2zW89jq_NETu4u42CFZTMVD5Hwm6e\n","To: /content/drive/Othercomputers/내 노트북/Forked_Models/Yolov7_StrongSORT_OSNet/osnet_x0_25_msmt17.pt\n","100% 9.34M/9.34M [00:00<00:00, 17.2MB/s]\n","Model: osnet_x0_25\n","- params: 203,568\n","- flops: 82,316,000\n","Successfully loaded pretrained weights from \"osnet_x0_25_msmt17.pt\"\n","** The following layers are discarded due to unmatched keys or layer size: ['classifier.weight', 'classifier.bias']\n","(1, 256, 128, 3)\n","/usr/local/lib/python3.9/dist-packages/torch/functional.py:504: UserWarning: torch.meshgrid: in an upcoming release, it will be required to pass the indexing argument. (Triggered internally at ../aten/src/ATen/native/TensorShape.cpp:3483.)\n","  return _VF.meshgrid(tensors, **kwargs)  # type: ignore[attr-defined]\n","384x640 2 persons, Done. YOLO:(0.235s), StrongSORT:(0.041s)\n","384x640 2 persons, Done. YOLO:(0.032s), StrongSORT:(0.054s)\n","384x640 3 persons, Done. YOLO:(0.032s), StrongSORT:(0.067s)\n","384x640 4 persons, Done. YOLO:(0.032s), StrongSORT:(0.100s)\n","384x640 5 persons, Done. YOLO:(0.032s), StrongSORT:(0.077s)\n","384x640 5 persons, Done. YOLO:(0.032s), StrongSORT:(0.069s)\n","384x640 5 persons, Done. YOLO:(0.032s), StrongSORT:(0.081s)\n","384x640 4 persons, Done. YOLO:(0.032s), StrongSORT:(0.055s)\n","384x640 6 persons, Done. YOLO:(0.032s), StrongSORT:(0.088s)\n","384x640 5 persons, Done. YOLO:(0.032s), StrongSORT:(0.091s)\n","384x640 5 persons, Done. YOLO:(0.032s), StrongSORT:(0.078s)\n","384x640 5 persons, Done. YOLO:(0.032s), StrongSORT:(0.073s)\n","384x640 4 persons, Done. YOLO:(0.032s), StrongSORT:(0.060s)\n","384x640 5 persons, Done. YOLO:(0.032s), StrongSORT:(0.071s)\n","384x640 5 persons, Done. YOLO:(0.032s), StrongSORT:(0.074s)\n","384x640 5 persons, Done. YOLO:(0.032s), StrongSORT:(0.069s)\n","384x640 5 persons, Done. YOLO:(0.033s), StrongSORT:(0.072s)\n","384x640 4 persons, Done. YOLO:(0.032s), StrongSORT:(0.061s)\n","384x640 4 persons, Done. YOLO:(0.032s), StrongSORT:(0.060s)\n","384x640 4 persons, Done. YOLO:(0.032s), StrongSORT:(0.069s)\n","384x640 4 persons, Done. YOLO:(0.032s), StrongSORT:(0.055s)\n","384x640 3 persons, Done. YOLO:(0.032s), StrongSORT:(0.052s)\n","384x640 3 persons, Done. YOLO:(0.032s), StrongSORT:(0.043s)\n","384x640 4 persons, Done. YOLO:(0.032s), StrongSORT:(0.062s)\n","384x640 4 persons, Done. YOLO:(0.032s), StrongSORT:(0.060s)\n","384x640 3 persons, Done. YOLO:(0.032s), StrongSORT:(0.045s)\n","384x640 4 persons, Done. YOLO:(0.032s), StrongSORT:(0.069s)\n","384x640 3 persons, Done. YOLO:(0.032s), StrongSORT:(0.044s)\n","384x640 4 persons, Done. YOLO:(0.032s), StrongSORT:(0.062s)\n","384x640 3 persons, Done. YOLO:(0.032s), StrongSORT:(0.042s)\n","384x640 6 persons, Done. YOLO:(0.032s), StrongSORT:(0.083s)\n","384x640 6 persons, Done. YOLO:(0.032s), StrongSORT:(0.082s)\n","384x640 5 persons, Done. YOLO:(0.032s), StrongSORT:(0.073s)\n","384x640 8 persons, Done. YOLO:(0.032s), StrongSORT:(0.121s)\n","384x640 4 persons, Done. YOLO:(0.032s), StrongSORT:(0.059s)\n","384x640 4 persons, Done. YOLO:(0.032s), StrongSORT:(0.057s)\n","384x640 3 persons, Done. YOLO:(0.032s), StrongSORT:(0.044s)\n","384x640 3 persons, Done. YOLO:(0.032s), StrongSORT:(0.045s)\n","384x640 3 persons, Done. YOLO:(0.032s), StrongSORT:(0.049s)\n","384x640 3 persons, Done. YOLO:(0.032s), StrongSORT:(0.046s)\n","384x640 3 persons, Done. YOLO:(0.032s), StrongSORT:(0.047s)\n","384x640 3 persons, Done. YOLO:(0.032s), StrongSORT:(0.044s)\n","384x640 3 persons, Done. YOLO:(0.032s), StrongSORT:(0.045s)\n","384x640 3 persons, Done. YOLO:(0.032s), StrongSORT:(0.045s)\n","384x640 4 persons, Done. YOLO:(0.032s), StrongSORT:(0.055s)\n","384x640 3 persons, Done. YOLO:(0.032s), StrongSORT:(0.044s)\n","384x640 4 persons, Done. YOLO:(0.032s), StrongSORT:(0.066s)\n","384x640 4 persons, Done. YOLO:(0.032s), StrongSORT:(0.059s)\n","384x640 4 persons, Done. YOLO:(0.032s), StrongSORT:(0.063s)\n","384x640 5 persons, Done. YOLO:(0.032s), StrongSORT:(0.081s)\n","384x640 5 persons, Done. YOLO:(0.032s), StrongSORT:(0.069s)\n","384x640 4 persons, Done. YOLO:(0.032s), StrongSORT:(0.064s)\n","384x640 3 persons, Done. YOLO:(0.032s), StrongSORT:(0.045s)\n","384x640 4 persons, Done. YOLO:(0.032s), StrongSORT:(0.085s)\n","384x640 4 persons, Done. YOLO:(0.032s), StrongSORT:(0.066s)\n","384x640 3 persons, Done. YOLO:(0.032s), StrongSORT:(0.056s)\n","384x640 4 persons, Done. YOLO:(0.032s), StrongSORT:(0.087s)\n","384x640 4 persons, Done. YOLO:(0.032s), StrongSORT:(0.088s)\n","384x640 5 persons, Done. YOLO:(0.032s), StrongSORT:(0.104s)\n","384x640 5 persons, Done. YOLO:(0.032s), StrongSORT:(0.106s)\n","384x640 5 persons, Done. YOLO:(0.032s), StrongSORT:(0.102s)\n","384x640 4 persons, Done. YOLO:(0.032s), StrongSORT:(0.078s)\n","384x640 5 persons, Done. YOLO:(0.032s), StrongSORT:(0.108s)\n","384x640 2 persons, Done. YOLO:(0.032s), StrongSORT:(0.045s)\n","384x640 3 persons, Done. YOLO:(0.032s), StrongSORT:(0.068s)\n","384x640 2 persons, Done. YOLO:(0.032s), StrongSORT:(0.043s)\n","384x640 3 persons, Done. YOLO:(0.032s), StrongSORT:(0.060s)\n","384x640 2 persons, Done. YOLO:(0.032s), StrongSORT:(0.045s)\n","384x640 4 persons, Done. YOLO:(0.032s), StrongSORT:(0.081s)\n","384x640 3 persons, Done. YOLO:(0.032s), StrongSORT:(0.066s)\n","384x640 4 persons, Done. YOLO:(0.032s), StrongSORT:(0.080s)\n","384x640 6 persons, Done. YOLO:(0.032s), StrongSORT:(0.128s)\n","384x640 5 persons, Done. YOLO:(0.032s), StrongSORT:(0.105s)\n","384x640 4 persons, Done. YOLO:(0.032s), StrongSORT:(0.103s)\n","384x640 5 persons, Done. YOLO:(0.032s), StrongSORT:(0.125s)\n","384x640 4 persons, Done. YOLO:(0.032s), StrongSORT:(0.055s)\n","384x640 4 persons, Done. YOLO:(0.032s), StrongSORT:(0.059s)\n","384x640 3 persons, Done. YOLO:(0.032s), StrongSORT:(0.044s)\n","384x640 4 persons, Done. YOLO:(0.032s), StrongSORT:(0.065s)\n","384x640 5 persons, Done. YOLO:(0.032s), StrongSORT:(0.084s)\n","384x640 3 persons, Done. YOLO:(0.032s), StrongSORT:(0.047s)\n","384x640 4 persons, Done. YOLO:(0.032s), StrongSORT:(0.069s)\n","384x640 3 persons, Done. YOLO:(0.032s), StrongSORT:(0.053s)\n","384x640 4 persons, Done. YOLO:(0.032s), StrongSORT:(0.056s)\n","384x640 3 persons, Done. YOLO:(0.032s), StrongSORT:(0.056s)\n","384x640 3 persons, Done. YOLO:(0.032s), StrongSORT:(0.044s)\n","384x640 4 persons, Done. YOLO:(0.032s), StrongSORT:(0.057s)\n","384x640 2 persons, Done. YOLO:(0.032s), StrongSORT:(0.036s)\n","384x640 3 persons, Done. YOLO:(0.032s), StrongSORT:(0.059s)\n","384x640 4 persons, Done. YOLO:(0.032s), StrongSORT:(0.058s)\n","384x640 5 persons, Done. YOLO:(0.032s), StrongSORT:(0.071s)\n","384x640 3 persons, Done. YOLO:(0.032s), StrongSORT:(0.048s)\n","384x640 3 persons, Done. YOLO:(0.032s), StrongSORT:(0.049s)\n","384x640 3 persons, Done. YOLO:(0.032s), StrongSORT:(0.051s)\n","384x640 3 persons, Done. YOLO:(0.032s), StrongSORT:(0.045s)\n","384x640 3 persons, Done. YOLO:(0.032s), StrongSORT:(0.049s)\n","384x640 3 persons, Done. YOLO:(0.032s), StrongSORT:(0.047s)\n","384x640 3 persons, Done. YOLO:(0.032s), StrongSORT:(0.046s)\n","384x640 3 persons, Done. YOLO:(0.032s), StrongSORT:(0.050s)\n","384x640 3 persons, Done. YOLO:(0.032s), StrongSORT:(0.047s)\n","384x640 3 persons, Done. YOLO:(0.032s), StrongSORT:(0.046s)\n","384x640 4 persons, Done. YOLO:(0.032s), StrongSORT:(0.061s)\n","384x640 3 persons, Done. YOLO:(0.032s), StrongSORT:(0.055s)\n","384x640 3 persons, Done. YOLO:(0.032s), StrongSORT:(0.045s)\n","384x640 4 persons, Done. YOLO:(0.032s), StrongSORT:(0.071s)\n","384x640 3 persons, Done. YOLO:(0.032s), StrongSORT:(0.044s)\n","384x640 3 persons, Done. YOLO:(0.032s), StrongSORT:(0.047s)\n","384x640 5 persons, Done. YOLO:(0.032s), StrongSORT:(0.070s)\n","384x640 5 persons, Done. YOLO:(0.032s), StrongSORT:(0.082s)\n","384x640 4 persons, Done. YOLO:(0.031s), StrongSORT:(0.061s)\n","384x640 4 persons, Done. YOLO:(0.031s), StrongSORT:(0.066s)\n","384x640 3 persons, Done. YOLO:(0.031s), StrongSORT:(0.048s)\n","384x640 3 persons, Done. YOLO:(0.031s), StrongSORT:(0.059s)\n","384x640 3 persons, Done. YOLO:(0.031s), StrongSORT:(0.046s)\n","384x640 3 persons, Done. YOLO:(0.031s), StrongSORT:(0.044s)\n","384x640 4 persons, Done. YOLO:(0.031s), StrongSORT:(0.063s)\n","384x640 3 persons, Done. YOLO:(0.031s), StrongSORT:(0.045s)\n","384x640 4 persons, Done. YOLO:(0.031s), StrongSORT:(0.062s)\n","384x640 3 persons, Done. YOLO:(0.031s), StrongSORT:(0.043s)\n","384x640 4 persons, Done. YOLO:(0.031s), StrongSORT:(0.060s)\n","384x640 6 persons, Done. YOLO:(0.031s), StrongSORT:(0.083s)\n","384x640 5 persons, Done. YOLO:(0.032s), StrongSORT:(0.075s)\n","384x640 4 persons, Done. YOLO:(0.032s), StrongSORT:(0.063s)\n","384x640 4 persons, Done. YOLO:(0.032s), StrongSORT:(0.074s)\n","384x640 4 persons, Done. YOLO:(0.032s), StrongSORT:(0.064s)\n","384x640 4 persons, Done. YOLO:(0.032s), StrongSORT:(0.076s)\n","384x640 5 persons, Done. YOLO:(0.032s), StrongSORT:(0.081s)\n","384x640 6 persons, Done. YOLO:(0.032s), StrongSORT:(0.090s)\n","384x640 3 persons, Done. YOLO:(0.032s), StrongSORT:(0.045s)\n","384x640 3 persons, Done. YOLO:(0.032s), StrongSORT:(0.048s)\n","384x640 3 persons, Done. YOLO:(0.032s), StrongSORT:(0.046s)\n","384x640 4 persons, Done. YOLO:(0.032s), StrongSORT:(0.064s)\n","384x640 3 persons, Done. YOLO:(0.032s), StrongSORT:(0.045s)\n","384x640 3 persons, Done. YOLO:(0.032s), StrongSORT:(0.044s)\n","384x640 3 persons, Done. YOLO:(0.032s), StrongSORT:(0.044s)\n","384x640 5 persons, Done. YOLO:(0.032s), StrongSORT:(0.078s)\n","384x640 4 persons, Done. YOLO:(0.032s), StrongSORT:(0.056s)\n","384x640 3 persons, Done. YOLO:(0.032s), StrongSORT:(0.052s)\n","384x640 3 persons, Done. YOLO:(0.032s), StrongSORT:(0.045s)\n","384x640 5 persons, Done. YOLO:(0.032s), StrongSORT:(0.071s)\n","384x640 3 persons, Done. YOLO:(0.032s), StrongSORT:(0.045s)\n","384x640 3 persons, Done. YOLO:(0.032s), StrongSORT:(0.046s)\n","384x640 6 persons, Done. YOLO:(0.032s), StrongSORT:(0.083s)\n","384x640 4 persons, Done. YOLO:(0.032s), StrongSORT:(0.099s)\n","384x640 3 persons, Done. YOLO:(0.032s), StrongSORT:(0.065s)\n","384x640 5 persons, Done. YOLO:(0.032s), StrongSORT:(0.095s)\n","384x640 4 persons, Done. YOLO:(0.032s), StrongSORT:(0.080s)\n","384x640 4 persons, Done. YOLO:(0.032s), StrongSORT:(0.087s)\n","384x640 3 persons, Done. YOLO:(0.032s), StrongSORT:(0.062s)\n","384x640 4 persons, Done. YOLO:(0.032s), StrongSORT:(0.076s)\n","384x640 4 persons, Done. YOLO:(0.032s), StrongSORT:(0.093s)\n","384x640 3 persons, Done. YOLO:(0.032s), StrongSORT:(0.069s)\n","384x640 4 persons, Done. YOLO:(0.033s), StrongSORT:(0.078s)\n","384x640 4 persons, Done. YOLO:(0.032s), StrongSORT:(0.078s)\n","384x640 3 persons, Done. YOLO:(0.032s), StrongSORT:(0.067s)\n","384x640 4 persons, Done. YOLO:(0.033s), StrongSORT:(0.091s)\n","384x640 4 persons, Done. YOLO:(0.032s), StrongSORT:(0.081s)\n","384x640 3 persons, Done. YOLO:(0.032s), StrongSORT:(0.062s)\n","384x640 6 persons, Done. YOLO:(0.032s), StrongSORT:(0.123s)\n","384x640 6 persons, Done. YOLO:(0.032s), StrongSORT:(0.132s)\n","384x640 3 persons, Done. YOLO:(0.032s), StrongSORT:(0.066s)\n","384x640 3 persons, Done. YOLO:(0.032s), StrongSORT:(0.078s)\n","384x640 4 persons, Done. YOLO:(0.032s), StrongSORT:(0.102s)\n","384x640 5 persons, Done. YOLO:(0.032s), StrongSORT:(0.079s)\n","384x640 4 persons, Done. YOLO:(0.032s), StrongSORT:(0.068s)\n","384x640 5 persons, Done. YOLO:(0.032s), StrongSORT:(0.074s)\n","384x640 4 persons, Done. YOLO:(0.032s), StrongSORT:(0.064s)\n","384x640 4 persons, Done. YOLO:(0.032s), StrongSORT:(0.060s)\n","384x640 6 persons, Done. YOLO:(0.032s), StrongSORT:(0.095s)\n","384x640 3 persons, Done. YOLO:(0.032s), StrongSORT:(0.045s)\n","384x640 4 persons, Done. YOLO:(0.032s), StrongSORT:(0.057s)\n","384x640 5 persons, Done. YOLO:(0.032s), StrongSORT:(0.072s)\n","384x640 4 persons, Done. YOLO:(0.032s), StrongSORT:(0.058s)\n","384x640 3 persons, Done. YOLO:(0.032s), StrongSORT:(0.049s)\n","384x640 3 persons, Done. YOLO:(0.032s), StrongSORT:(0.045s)\n","384x640 3 persons, Done. YOLO:(0.032s), StrongSORT:(0.049s)\n","384x640 3 persons, Done. YOLO:(0.032s), StrongSORT:(0.045s)\n","384x640 3 persons, Done. YOLO:(0.032s), StrongSORT:(0.046s)\n","384x640 3 persons, Done. YOLO:(0.032s), StrongSORT:(0.044s)\n","384x640 3 persons, Done. YOLO:(0.032s), StrongSORT:(0.047s)\n","384x640 3 persons, Done. YOLO:(0.032s), StrongSORT:(0.045s)\n","384x640 4 persons, Done. YOLO:(0.032s), StrongSORT:(0.065s)\n","384x640 3 persons, Done. YOLO:(0.032s), StrongSORT:(0.045s)\n","384x640 4 persons, Done. YOLO:(0.032s), StrongSORT:(0.062s)\n","384x640 3 persons, Done. YOLO:(0.032s), StrongSORT:(0.045s)\n","384x640 7 persons, Done. YOLO:(0.032s), StrongSORT:(0.117s)\n","384x640 4 persons, Done. YOLO:(0.032s), StrongSORT:(0.065s)\n","384x640 3 persons, Done. YOLO:(0.032s), StrongSORT:(0.047s)\n","384x640 4 persons, Done. YOLO:(0.032s), StrongSORT:(0.067s)\n","384x640 5 persons, Done. YOLO:(0.032s), StrongSORT:(0.079s)\n","384x640 4 persons, Done. YOLO:(0.032s), StrongSORT:(0.062s)\n","384x640 3 persons, Done. YOLO:(0.032s), StrongSORT:(0.052s)\n","384x640 3 persons, Done. YOLO:(0.032s), StrongSORT:(0.055s)\n","384x640 3 persons, Done. YOLO:(0.032s), StrongSORT:(0.047s)\n","384x640 4 persons, Done. YOLO:(0.032s), StrongSORT:(0.066s)\n","384x640 4 persons, Done. YOLO:(0.032s), StrongSORT:(0.060s)\n","384x640 4 persons, Done. YOLO:(0.032s), StrongSORT:(0.063s)\n","384x640 3 persons, Done. YOLO:(0.032s), StrongSORT:(0.046s)\n","384x640 3 persons, Done. YOLO:(0.032s), StrongSORT:(0.063s)\n","384x640 3 persons, Done. YOLO:(0.032s), StrongSORT:(0.046s)\n","384x640 3 persons, Done. YOLO:(0.032s), StrongSORT:(0.044s)\n","384x640 4 persons, Done. YOLO:(0.032s), StrongSORT:(0.061s)\n","384x640 3 persons, Done. YOLO:(0.032s), StrongSORT:(0.047s)\n","384x640 4 persons, Done. YOLO:(0.032s), StrongSORT:(0.066s)\n","384x640 4 persons, Done. YOLO:(0.032s), StrongSORT:(0.060s)\n","384x640 3 persons, Done. YOLO:(0.032s), StrongSORT:(0.055s)\n","384x640 3 persons, Done. YOLO:(0.032s), StrongSORT:(0.046s)\n","384x640 3 persons, Done. YOLO:(0.032s), StrongSORT:(0.052s)\n","384x640 3 persons, Done. YOLO:(0.032s), StrongSORT:(0.054s)\n","384x640 3 persons, Done. YOLO:(0.032s), StrongSORT:(0.049s)\n","384x640 3 persons, Done. YOLO:(0.032s), StrongSORT:(0.052s)\n","384x640 3 persons, Done. YOLO:(0.032s), StrongSORT:(0.044s)\n","384x640 6 persons, Done. YOLO:(0.032s), StrongSORT:(0.098s)\n","384x640 2 persons, Done. YOLO:(0.032s), StrongSORT:(0.031s)\n","384x640 2 persons, Done. YOLO:(0.032s), StrongSORT:(0.038s)\n","384x640 2 persons, Done. YOLO:(0.032s), StrongSORT:(0.034s)\n","384x640 2 persons, Done. YOLO:(0.032s), StrongSORT:(0.036s)\n","384x640 2 persons, Done. YOLO:(0.032s), StrongSORT:(0.031s)\n","384x640 2 persons, Done. YOLO:(0.032s), StrongSORT:(0.037s)\n","384x640 2 persons, Done. YOLO:(0.032s), StrongSORT:(0.033s)\n","384x640 2 persons, Done. YOLO:(0.032s), StrongSORT:(0.041s)\n","384x640 4 persons, Done. YOLO:(0.032s), StrongSORT:(0.064s)\n","384x640 2 persons, Done. YOLO:(0.032s), StrongSORT:(0.035s)\n","384x640 3 persons, Done. YOLO:(0.032s), StrongSORT:(0.048s)\n","384x640 5 persons, Done. YOLO:(0.032s), StrongSORT:(0.072s)\n","384x640 2 persons, Done. YOLO:(0.032s), StrongSORT:(0.032s)\n","384x640 2 persons, Done. YOLO:(0.032s), StrongSORT:(0.031s)\n","384x640 2 persons, Done. YOLO:(0.032s), StrongSORT:(0.033s)\n","384x640 2 persons, Done. YOLO:(0.032s), StrongSORT:(0.032s)\n","384x640 2 persons, Done. YOLO:(0.032s), StrongSORT:(0.035s)\n","384x640 3 persons, Done. YOLO:(0.032s), StrongSORT:(0.049s)\n","384x640 3 persons, Done. YOLO:(0.032s), StrongSORT:(0.044s)\n","384x640 2 persons, Done. YOLO:(0.032s), StrongSORT:(0.040s)\n","384x640 3 persons, Done. YOLO:(0.032s), StrongSORT:(0.067s)\n","384x640 3 persons, Done. YOLO:(0.032s), StrongSORT:(0.068s)\n","384x640 3 persons, Done. YOLO:(0.034s), StrongSORT:(0.065s)\n","384x640 4 persons, Done. YOLO:(0.032s), StrongSORT:(0.080s)\n","384x640 3 persons, Done. YOLO:(0.032s), StrongSORT:(0.067s)\n","384x640 3 persons, Done. YOLO:(0.032s), StrongSORT:(0.063s)\n","384x640 3 persons, Done. YOLO:(0.032s), StrongSORT:(0.066s)\n","384x640 3 persons, Done. YOLO:(0.032s), StrongSORT:(0.077s)\n","384x640 3 persons, Done. YOLO:(0.032s), StrongSORT:(0.060s)\n","384x640 6 persons, Done. YOLO:(0.032s), StrongSORT:(0.127s)\n","384x640 2 persons, Done. YOLO:(0.032s), StrongSORT:(0.043s)\n","384x640 3 persons, Done. YOLO:(0.032s), StrongSORT:(0.064s)\n","384x640 3 persons, Done. YOLO:(0.032s), StrongSORT:(0.064s)\n","384x640 4 persons, Done. YOLO:(0.032s), StrongSORT:(0.083s)\n","384x640 4 persons, Done. YOLO:(0.032s), StrongSORT:(0.081s)\n","384x640 3 persons, Done. YOLO:(0.032s), StrongSORT:(0.060s)\n","384x640 4 persons, Done. YOLO:(0.032s), StrongSORT:(0.090s)\n","384x640 3 persons, Done. YOLO:(0.032s), StrongSORT:(0.064s)\n","384x640 5 persons, Done. YOLO:(0.032s), StrongSORT:(0.130s)\n","384x640 4 persons, Done. YOLO:(0.032s), StrongSORT:(0.113s)\n","384x640 4 persons, Done. YOLO:(0.032s), StrongSORT:(0.066s)\n","384x640 3 persons, Done. YOLO:(0.032s), StrongSORT:(0.050s)\n","384x640 5 persons, Done. YOLO:(0.032s), StrongSORT:(0.073s)\n","384x640 3 persons, Done. YOLO:(0.032s), StrongSORT:(0.048s)\n","384x640 4 persons, Done. YOLO:(0.032s), StrongSORT:(0.058s)\n","384x640 4 persons, Done. YOLO:(0.032s), StrongSORT:(0.061s)\n","384x640 3 persons, Done. YOLO:(0.032s), StrongSORT:(0.044s)\n","384x640 3 persons, Done. YOLO:(0.032s), StrongSORT:(0.045s)\n","384x640 3 persons, Done. YOLO:(0.032s), StrongSORT:(0.046s)\n","384x640 4 persons, Done. YOLO:(0.032s), StrongSORT:(0.060s)\n","384x640 3 persons, Done. YOLO:(0.032s), StrongSORT:(0.050s)\n","384x640 3 persons, Done. YOLO:(0.032s), StrongSORT:(0.045s)\n","384x640 3 persons, Done. YOLO:(0.032s), StrongSORT:(0.044s)\n","384x640 5 persons, Done. YOLO:(0.032s), StrongSORT:(0.078s)\n","384x640 4 persons, Done. YOLO:(0.032s), StrongSORT:(0.058s)\n","384x640 4 persons, Done. YOLO:(0.031s), StrongSORT:(0.060s)\n","384x640 4 persons, Done. YOLO:(0.031s), StrongSORT:(0.061s)\n","384x640 5 persons, Done. YOLO:(0.031s), StrongSORT:(0.078s)\n","384x640 5 persons, Done. YOLO:(0.031s), StrongSORT:(0.068s)\n","384x640 5 persons, Done. YOLO:(0.031s), StrongSORT:(0.078s)\n","384x640 5 persons, Done. YOLO:(0.031s), StrongSORT:(0.073s)\n","384x640 5 persons, Done. YOLO:(0.031s), StrongSORT:(0.072s)\n","384x640 3 persons, Done. YOLO:(0.031s), StrongSORT:(0.044s)\n","384x640 2 persons, Done. YOLO:(0.031s), StrongSORT:(0.037s)\n","384x640 4 persons, Done. YOLO:(0.031s), StrongSORT:(0.055s)\n","384x640 4 persons, Done. YOLO:(0.031s), StrongSORT:(0.059s)\n","384x640 3 persons, Done. YOLO:(0.031s), StrongSORT:(0.044s)\n","384x640 5 persons, Done. YOLO:(0.031s), StrongSORT:(0.076s)\n","384x640 5 persons, Done. YOLO:(0.032s), StrongSORT:(0.073s)\n","384x640 4 persons, Done. YOLO:(0.032s), StrongSORT:(0.063s)\n","384x640 3 persons, Done. YOLO:(0.032s), StrongSORT:(0.048s)\n","384x640 4 persons, Done. YOLO:(0.032s), StrongSORT:(0.061s)\n","384x640 4 persons, Done. YOLO:(0.032s), StrongSORT:(0.060s)\n","384x640 3 persons, Done. YOLO:(0.032s), StrongSORT:(0.045s)\n","384x640 2 persons, Done. YOLO:(0.032s), StrongSORT:(0.031s)\n","384x640 4 persons, Done. YOLO:(0.032s), StrongSORT:(0.057s)\n","384x640 4 persons, Done. YOLO:(0.032s), StrongSORT:(0.064s)\n","384x640 4 persons, Done. YOLO:(0.032s), StrongSORT:(0.057s)\n","384x640 4 persons, Done. YOLO:(0.032s), StrongSORT:(0.057s)\n","384x640 3 persons, Done. YOLO:(0.032s), StrongSORT:(0.047s)\n","384x640 4 persons, Done. YOLO:(0.032s), StrongSORT:(0.060s)\n","384x640 5 persons, Done. YOLO:(0.032s), StrongSORT:(0.074s)\n","384x640 5 persons, Done. YOLO:(0.032s), StrongSORT:(0.068s)\n","384x640 7 persons, Done. YOLO:(0.032s), StrongSORT:(0.104s)\n","384x640 7 persons, Done. YOLO:(0.032s), StrongSORT:(0.097s)\n","384x640 4 persons, Done. YOLO:(0.032s), StrongSORT:(0.062s)\n","384x640 8 persons, Done. YOLO:(0.032s), StrongSORT:(0.115s)\n","384x640 3 persons, Done. YOLO:(0.032s), StrongSORT:(0.048s)\n","384x640 5 persons, Done. YOLO:(0.032s), StrongSORT:(0.077s)\n","384x640 4 persons, Done. YOLO:(0.032s), StrongSORT:(0.059s)\n","384x640 4 persons, Done. YOLO:(0.032s), StrongSORT:(0.058s)\n","384x640 4 persons, Done. YOLO:(0.032s), StrongSORT:(0.056s)\n","384x640 5 persons, Done. YOLO:(0.032s), StrongSORT:(0.083s)\n","384x640 5 persons, Done. YOLO:(0.032s), StrongSORT:(0.072s)\n","384x640 4 persons, Done. YOLO:(0.032s), StrongSORT:(0.066s)\n","384x640 4 persons, Done. YOLO:(0.032s), StrongSORT:(0.065s)\n","Speed: 0.5ms pre-process, 32.8ms inference, 2.3ms NMS, 62.9ms strong sort update per image at shape (1, 3, 640, 640)\n","Results saved to \u001b[1mruns/track/exp4\u001b[0m\n"]}],"source":["!python track.py --yolo-weights \"/content/drive/Othercomputers/내 노트북/Forked_Models/Yolov7_StrongSORT_OSNet/yolov7.pt\" --strong-sort-weights osnet_x0_25_msmt17.pt --source sample_video/ --save-vid --conf-thres 0.05 --device 0 --classes 0"]},{"cell_type":"markdown","metadata":{"id":"vd-CFrVGBoEU"},"source":["# Show results\n","\n","https://stackoverflow.com/questions/60977179/how-to-play-avi-file-in-google-colab\n","\n","Convert avi to mp4"]},{"cell_type":"code","execution_count":null,"metadata":{"colab":{"base_uri":"https://localhost:8080/"},"executionInfo":{"elapsed":45115,"status":"ok","timestamp":1681690769000,"user":{"displayName":"Justin Park","userId":"12032321859036831361"},"user_tz":-540},"id":"Q-4tlUaCBjDC","outputId":"267382c7-a1a6-4bec-b796-96d5cbf67c8a"},"outputs":[{"name":"stdout","output_type":"stream","text":["ffmpeg version 4.2.7-0ubuntu0.1 Copyright (c) 2000-2022 the FFmpeg developers\n","  built with gcc 9 (Ubuntu 9.4.0-1ubuntu1~20.04.1)\n","  configuration: --prefix=/usr --extra-version=0ubuntu0.1 --toolchain=hardened --libdir=/usr/lib/x86_64-linux-gnu --incdir=/usr/include/x86_64-linux-gnu --arch=amd64 --enable-gpl --disable-stripping --enable-avresample --disable-filter=resample --enable-avisynth --enable-gnutls --enable-ladspa --enable-libaom --enable-libass --enable-libbluray --enable-libbs2b --enable-libcaca --enable-libcdio --enable-libcodec2 --enable-libflite --enable-libfontconfig --enable-libfreetype --enable-libfribidi --enable-libgme --enable-libgsm --enable-libjack --enable-libmp3lame --enable-libmysofa --enable-libopenjpeg --enable-libopenmpt --enable-libopus --enable-libpulse --enable-librsvg --enable-librubberband --enable-libshine --enable-libsnappy --enable-libsoxr --enable-libspeex --enable-libssh --enable-libtheora --enable-libtwolame --enable-libvidstab --enable-libvorbis --enable-libvpx --enable-libwavpack --enable-libwebp --enable-libx265 --enable-libxml2 --enable-libxvid --enable-libzmq --enable-libzvbi --enable-lv2 --enable-omx --enable-openal --enable-opencl --enable-opengl --enable-sdl2 --enable-libdc1394 --enable-libdrm --enable-libiec61883 --enable-nvenc --enable-chromaprint --enable-frei0r --enable-libx264 --enable-shared\n","  libavutil      56. 31.100 / 56. 31.100\n","  libavcodec     58. 54.100 / 58. 54.100\n","  libavformat    58. 29.100 / 58. 29.100\n","  libavdevice    58.  8.100 / 58.  8.100\n","  libavfilter     7. 57.100 /  7. 57.100\n","  libavresample   4.  0.  0 /  4.  0.  0\n","  libswscale      5.  5.100 /  5.  5.100\n","  libswresample   3.  5.100 /  3.  5.100\n","  libpostproc    55.  5.100 / 55.  5.100\n","Input #0, mov,mp4,m4a,3gp,3g2,mj2, from '/content/drive/Othercomputers/내 노트북/Forked_Models/Yolov7_StrongSORT_OSNet/runs/track/exp4/sample_video.mp4':\n","  Metadata:\n","    major_brand     : isom\n","    minor_version   : 512\n","    compatible_brands: isomiso2mp41\n","    encoder         : Lavf59.27.100\n","  Duration: 00:00:10.30, start: 0.000000, bitrate: 19289 kb/s\n","    Stream #0:0(und): Video: mpeg4 (Simple Profile) (mp4v / 0x7634706D), yuv420p, 1920x1080 [SAR 1:1 DAR 16:9], 19287 kb/s, 30 fps, 30 tbr, 15360 tbn, 30 tbc (default)\n","    Metadata:\n","      handler_name    : VideoHandler\n","Stream mapping:\n","  Stream #0:0 -> #0:0 (mpeg4 (native) -> h264 (libx264))\n","Press [q] to stop, [?] for help\n","\u001b[1;36m[libx264 @ 0x561e295d35c0] \u001b[0musing SAR=1/1\n","\u001b[1;36m[libx264 @ 0x561e295d35c0] \u001b[0musing cpu capabilities: MMX2 SSE2Fast SSSE3 SSE4.2 AVX FMA3 BMI2 AVX2 AVX512\n","\u001b[1;36m[libx264 @ 0x561e295d35c0] \u001b[0mprofile High, level 4.0\n","\u001b[1;36m[libx264 @ 0x561e295d35c0] \u001b[0m264 - core 155 r2917 0a84d98 - H.264/MPEG-4 AVC codec - Copyleft 2003-2018 - http://www.videolan.org/x264.html - options: cabac=1 ref=3 deblock=1:0:0 analyse=0x3:0x113 me=hex subme=7 psy=1 psy_rd=1.00:0.00 mixed_ref=1 me_range=16 chroma_me=1 trellis=1 8x8dct=1 cqm=0 deadzone=21,11 fast_pskip=1 chroma_qp_offset=-2 threads=3 lookahead_threads=1 sliced_threads=0 nr=0 decimate=1 interlaced=0 bluray_compat=0 constrained_intra=0 bframes=3 b_pyramid=2 b_adapt=1 b_bias=0 direct=1 weightb=1 open_gop=0 weightp=2 keyint=250 keyint_min=25 scenecut=40 intra_refresh=0 rc_lookahead=40 rc=crf mbtree=1 crf=23.0 qcomp=0.60 qpmin=0 qpmax=69 qpstep=4 ip_ratio=1.40 aq=1:1.00\n","Output #0, mp4, to 'sample_video.mp4':\n","  Metadata:\n","    major_brand     : isom\n","    minor_version   : 512\n","    compatible_brands: isomiso2mp41\n","    encoder         : Lavf58.29.100\n","    Stream #0:0(und): Video: h264 (libx264) (avc1 / 0x31637661), yuv420p, 1920x1080 [SAR 1:1 DAR 16:9], q=-1--1, 30 fps, 15360 tbn, 30 tbc (default)\n","    Metadata:\n","      handler_name    : VideoHandler\n","      encoder         : Lavc58.54.100 libx264\n","    Side data:\n","      cpb: bitrate max/min/avg: 0/0/0 buffer size: 0 vbv_delay: -1\n","frame=  309 fps=7.0 q=-1.0 Lsize=    6446kB time=00:00:10.20 bitrate=5176.7kbits/s speed=0.231x    \n","video:6441kB audio:0kB subtitle:0kB other streams:0kB global headers:0kB muxing overhead: 0.063826%\n","\u001b[1;36m[libx264 @ 0x561e295d35c0] \u001b[0mframe I:2     Avg QP:22.04  size:137399\n","\u001b[1;36m[libx264 @ 0x561e295d35c0] \u001b[0mframe P:143   Avg QP:23.50  size: 31143\n","\u001b[1;36m[libx264 @ 0x561e295d35c0] \u001b[0mframe B:164   Avg QP:25.78  size: 11385\n","\u001b[1;36m[libx264 @ 0x561e295d35c0] \u001b[0mconsecutive B-frames: 24.9%  9.7%  9.7% 55.7%\n","\u001b[1;36m[libx264 @ 0x561e295d35c0] \u001b[0mmb I  I16..4: 18.1% 74.2%  7.7%\n","\u001b[1;36m[libx264 @ 0x561e295d35c0] \u001b[0mmb P  I16..4:  2.9%  8.5%  0.8%  P16..4: 43.4%  8.7%  6.7%  0.0%  0.0%    skip:28.9%\n","\u001b[1;36m[libx264 @ 0x561e295d35c0] \u001b[0mmb B  I16..4:  1.3%  4.6%  0.4%  B16..8: 27.0%  2.9%  0.5%  direct: 1.7%  skip:61.6%  L0:53.3% L1:44.7% BI: 2.0%\n","\u001b[1;36m[libx264 @ 0x561e295d35c0] \u001b[0m8x8 transform intra:71.1% inter:78.8%\n","\u001b[1;36m[libx264 @ 0x561e295d35c0] \u001b[0mcoded y,uvDC,uvAC intra: 46.5% 69.1% 10.5% inter: 13.1% 22.8% 1.1%\n","\u001b[1;36m[libx264 @ 0x561e295d35c0] \u001b[0mi16 v,h,dc,p: 44% 24% 21% 11%\n","\u001b[1;36m[libx264 @ 0x561e295d35c0] \u001b[0mi8 v,h,dc,ddl,ddr,vr,hd,vl,hu: 23% 17% 41%  3%  3%  3%  3%  3%  3%\n","\u001b[1;36m[libx264 @ 0x561e295d35c0] \u001b[0mi4 v,h,dc,ddl,ddr,vr,hd,vl,hu: 34% 22% 11%  4%  7%  8%  5%  5%  4%\n","\u001b[1;36m[libx264 @ 0x561e295d35c0] \u001b[0mi8c dc,h,v,p: 44% 24% 29%  4%\n","\u001b[1;36m[libx264 @ 0x561e295d35c0] \u001b[0mWeighted P-Frames: Y:0.7% UV:0.0%\n","\u001b[1;36m[libx264 @ 0x561e295d35c0] \u001b[0mref P L0: 59.8% 10.8% 19.9%  9.5%  0.0%\n","\u001b[1;36m[libx264 @ 0x561e295d35c0] \u001b[0mref B L0: 76.8% 16.3%  6.9%\n","\u001b[1;36m[libx264 @ 0x561e295d35c0] \u001b[0mref B L1: 93.3%  6.7%\n","\u001b[1;36m[libx264 @ 0x561e295d35c0] \u001b[0mkb/s:5122.64\n"]}],"source":["!ffmpeg -i \"/content/drive/Othercomputers/내 노트북/Forked_Models/Yolov7_StrongSORT_OSNet/runs/track/exp4/sample_video.mp4\" sample_video.mp4"]},{"cell_type":"markdown","metadata":{"id":"j7XAlRteC9qI"},"source":["Get the file content into data_url"]},{"cell_type":"code","execution_count":null,"metadata":{"id":"-ObuFb7dBwxK"},"outputs":[],"source":["from IPython.display import HTML\n","from base64 import b64encode\n","mp4 = open('sample_video.mp4','rb').read()\n","data_url = \"data:video/mp4;base64,\" + b64encode(mp4).decode()"]},{"cell_type":"markdown","metadata":{"id":"kLvggIUZDC6R"},"source":["Display it with HTML"]},{"cell_type":"code","execution_count":null,"metadata":{"colab":{"background_save":true,"base_uri":"https://localhost:8080/","output_embedded_package_id":"1RLZm-whwnKs1Igw0qqDp3VlAy5w_m-ne"},"executionInfo":{"elapsed":23065,"status":"ok","timestamp":1681690798118,"user":{"displayName":"Justin Park","userId":"12032321859036831361"},"user_tz":-540},"id":"RyXr0xsZB897","outputId":"0aef2f9c-335c-4ca6-b030-9286c2d81f67"},"outputs":[{"output_type":"display_data","data":{"text/plain":"Output hidden; open in https://colab.research.google.com to view."},"metadata":{}}],"source":["HTML(\"\"\"\n","<video controls width=\"600\">\n","      <source src=\"%s\" type=\"video/mp4\">\n","</video>\n","\"\"\" % data_url)"]}],"metadata":{"accelerator":"GPU","colab":{"provenance":[{"file_id":"101f0PNBPx3245Hu710QAf2LXpf3E2uIk","timestamp":1681278735526},{"file_id":"18nIqkBr68TkK8dHdarxTco6svHUJGggY","timestamp":1660025771409}]},"gpuClass":"standard","kernelspec":{"display_name":"Python 3","name":"python3"},"language_info":{"name":"python"}},"nbformat":4,"nbformat_minor":0}